# xmcd
#
# Track frame offsets: 
#        150
#        20873
#        38279
#        78479
#        89662
#        106131
#        120482
#        137689
#        155104
#        173309
#        193886
#        206164
#        226301
#        239838
#        262819
#        284729
#        299065
#
# Disc length: 4783 seconds
#
# Revision: 3
# Processed by: cddbd v1.5.2PL0 Copyright (c) Steve Scherf et al.
# Submitted via: ExactAudioCopy v1.1
#
DISCID=fb12ad11
DTITLE=Various Artist - Akella Presents - vol.74 - Rockin' Blues  CD2
DTITLE=
DYEAR=2016
DGENRE=Blues
TTITLE0=Cherry and The Lowboys - Company Car
TTITLE1=Royal Southern Brotherhood - Trapped
TTITLE2=Twelve Bar Blues Band - Life Is Hard
TTITLE3=Helander Co - My Black Rabbit
TTITLE4=Gregg Allman - Before The Bullets Fly
TTITLE5=Brother Bones Blues Band - Short Stuff
TTITLE6=Tolo Marton - Back To My Youth
TTITLE7=The Record Company - Give It Back To You
TTITLE8=Neal Black and Larry Garner - Better Days
TTITLE9=The BluesBones - The World Starts Bleeding
TTITLE10=Mark Cook - Hillside Blues
TTITLE11=Jeff Healey - It's The Last Time
TTITLE12=Andy Lindquist - Second Hand Jezebel
TTITLE13=Tommy Castro - Dirt Road Blues
TTITLE14=Slim Chance and The Gamblers - Betty Louz Bluez
TTITLE15=Gashouse Dave - Le Blonde Bomb
TTITLE16=Brent Johnson - As The Years Go Passing By
EXTD=
EXTT0=
EXTT1=
EXTT2=
EXTT3=
EXTT4=
EXTT5=
EXTT6=
EXTT7=
EXTT8=
EXTT9=
EXTT10=
EXTT11=
EXTT12=
EXTT13=
EXTT14=
EXTT15=
EXTT16=
PLAYORDER=
